<?xml version="1.0" standalone="no"?>
<!DOCTYPE svg PUBLIC "-//W3C//DTD SVG 20010904//EN"
 "http://www.w3.org/TR/2001/REC-SVG-20010904/DTD/svg10.dtd">
<svg version="1.0" xmlns="http://www.w3.org/2000/svg"
 width="500.000000pt" height="500.000000pt" viewBox="0 0 500.000000 500.000000"
 preserveAspectRatio="xMidYMid meet">

<g transform="translate(0.000000,500.000000) scale(0.100000,-0.100000)"
fill="#000000" stroke="none">
<path d="M2652 4074 c-136 -68 -175 -249 -90 -419 33 -65 170 -285 179 -285
20 0 171 282 195 365 10 35 18 96 18 145 1 72 -3 91 -22 122 -27 44 -94 74
-143 64 -104 -21 -170 -162 -123 -262 40 -84 134 -102 169 -33 24 45 19 106
-10 134 -24 25 -75 35 -75 15 0 -5 11 -10 24 -10 49 0 71 -71 41 -130 -28 -53
-102 -33 -131 36 -39 92 16 209 107 229 37 8 95 -19 123 -58 29 -40 28 -156
-2 -252 -22 -73 -149 -316 -168 -322 -13 -4 -121 166 -165 262 -27 58 -34 84
-37 155 -3 82 -2 87 30 139 26 42 46 62 90 85 32 17 58 34 58 39 0 12 -14 8
-68 -19z"/>
<path d="M2330 3933 c-142 -22 -281 -76 -390 -150 -84 -57 -160 -125 -160
-142 0 -18 7 -14 70 44 90 83 264 185 315 185 30 0 11 -71 -26 -98 -10 -7 -30
-32 -44 -56 -34 -58 -33 -114 5 -216 20 -53 30 -100 30 -135 0 -75 -23 -99
-119 -126 -87 -23 -110 -38 -213 -136 -43 -40 -82 -73 -88 -73 -24 0 -9 94 27
174 67 149 54 216 -42 202 -83 -13 -113 -58 -145 -220 -17 -82 -14 -267 4
-353 67 -315 300 -579 601 -681 103 -35 176 -46 300 -46 144 1 256 25 381 83
105 50 162 89 248 170 85 82 144 163 196 272 69 145 83 216 84 434 1 143 -2
193 -11 203 -7 7 -13 26 -13 42 0 21 8 33 33 49 19 11 58 47 88 78 48 52 52
58 32 61 -23 3 -110 -36 -160 -74 -17 -13 -34 -24 -37 -24 -3 0 -15 19 -27 43
-42 82 -103 163 -181 240 -43 42 -87 77 -96 77 -11 0 12 -27 60 -73 76 -71
147 -156 173 -206 13 -26 12 -26 -19 -25 -18 1 -56 14 -85 29 -47 23 -57 25
-82 15 -16 -7 -29 -15 -29 -19 0 -6 140 -96 187 -120 22 -11 20 -14 -55 -78
-42 -37 -87 -76 -100 -87 -21 -19 -24 -19 -58 -3 -28 14 -39 15 -56 6 -21 -11
-21 -12 15 -33 20 -11 35 -27 32 -33 -2 -7 2 -13 10 -13 10 0 15 -11 15 -33 0
-19 3 -37 7 -40 14 -15 33 18 33 57 l1 41 112 67 c61 36 113 65 114 64 1 -1 4
-18 7 -36 15 -118 30 -216 32 -219 2 -2 14 4 25 15 l22 19 -7 -85 c-12 -152
-30 -205 -92 -282 -31 -37 -78 -84 -105 -104 -27 -19 -58 -47 -69 -61 -22 -28
-27 -91 -10 -123 8 -15 3 -24 -28 -52 -130 -118 -304 -195 -491 -217 -102 -13
-124 -7 -155 42 -30 48 -29 62 10 76 19 7 61 40 92 73 65 68 97 88 144 88 44
0 58 -10 82 -62 l21 -43 63 3 c41 2 69 -2 79 -10 13 -10 15 -9 11 7 -3 18 -11
20 -71 18 l-68 -2 -19 44 c-22 52 -43 65 -103 65 -48 0 -97 -29 -153 -91 -42
-47 -65 -65 -91 -73 -21 -7 -23 -4 -23 29 0 89 68 264 148 382 l40 59 116 16
c63 9 137 26 163 38 133 59 183 181 117 287 -44 70 -104 98 -216 99 -65 1 -93
5 -114 19 l-27 18 51 49 c29 27 52 51 52 54 0 14 -27 -2 -70 -42 -37 -35 -50
-42 -57 -31 -28 46 -123 65 -143 28 -37 -70 52 -130 130 -87 22 13 28 12 53
-6 24 -17 46 -21 121 -23 103 -2 156 -23 195 -76 28 -37 41 -102 30 -142 -11
-42 -72 -101 -131 -127 -43 -19 -237 -55 -246 -45 -5 5 207 218 268 269 52 44
39 39 -42 -16 -86 -57 -177 -139 -233 -207 -39 -47 -61 -64 -96 -76 -61 -21
-95 -47 -158 -122 -57 -70 -101 -98 -137 -89 -54 14 -37 85 41 176 71 82 78
103 86 285 4 88 10 170 14 183 4 13 3 22 -3 22 -18 0 -25 -43 -31 -205 -8
-179 -9 -182 -90 -283 -80 -99 -91 -182 -27 -198 48 -12 92 14 167 97 60 67
128 119 154 119 4 0 -2 -12 -13 -27 -68 -97 -131 -264 -139 -370 -4 -55 -10
-73 -20 -73 -24 0 -73 -33 -79 -53 -10 -31 2 -30 34 3 43 43 62 39 93 -20 l27
-50 -38 0 c-68 0 -226 47 -317 95 -116 60 -217 141 -206 163 4 10 8 42 8 73 0
58 2 54 -79 154 -23 29 -17 58 24 110 79 100 -13 190 -175 170 l-57 -8 5 149
c7 240 42 333 132 350 75 14 83 -36 24 -167 -39 -89 -52 -192 -24 -202 24 -10
51 8 143 94 78 74 89 80 170 105 115 35 135 55 140 137 3 52 -2 79 -27 152
-17 49 -31 104 -31 123 0 41 33 107 64 127 29 19 46 56 46 99 0 32 1 34 58 45
31 6 92 14 135 18 42 3 77 10 77 14 0 9 -91 10 -140 2z m920 -503 c0 -5 -4
-10 -10 -10 -5 0 -10 5 -10 10 0 6 5 10 10 10 6 0 10 -4 10 -10z m-707 -188
l27 -29 -25 -11 c-36 -17 -65 -15 -87 5 -18 16 -24 44 -11 56 17 18 70 6 96
-21z m-828 -373 c51 -13 85 -41 85 -72 0 -12 -16 -44 -35 -71 -47 -67 -46 -93
10 -155 48 -55 63 -103 49 -154 l-9 -31 -48 56 c-88 103 -179 293 -189 393 -3
25 1 30 27 36 46 10 63 10 110 -2z m1544 -241 c-34 -67 -85 -143 -125 -188
-41 -45 -54 -41 -54 19 0 29 8 42 47 75 26 23 70 64 97 92 28 29 52 50 54 49
2 -2 -7 -23 -19 -47z"/>
<path d="M590 1790 l0 -30 185 0 185 0 0 30 0 30 -185 0 -185 0 0 -30z"/>
<path d="M1020 1640 l0 -180 40 0 40 0 0 180 0 180 -40 0 -40 0 0 -180z"/>
<path d="M1400 1640 l0 -180 40 0 40 0 0 180 0 180 -40 0 -40 0 0 -180z"/>
<path d="M1570 1640 l0 -180 40 0 40 0 0 180 0 180 -40 0 -40 0 0 -180z"/>
<path d="M1690 1790 l0 -30 130 0 130 0 0 30 0 30 -130 0 -130 0 0 -30z"/>
<path d="M2180 1640 l0 -180 35 0 35 0 0 180 0 180 -35 0 -35 0 0 -180z"/>
<path d="M2640 1640 l0 -180 35 0 35 0 0 180 0 180 -35 0 -35 0 0 -180z"/>
<path d="M2810 1640 l0 -180 40 0 40 0 0 180 0 180 -40 0 -40 0 0 -180z"/>
<path d="M2920 1790 l0 -30 135 0 135 0 0 30 0 30 -135 0 -135 0 0 -30z"/>
<path d="M3280 1640 l0 -180 40 0 40 0 0 180 0 180 -40 0 -40 0 0 -180z"/>
<path d="M3412 1797 l-22 -23 83 -82 83 -83 24 26 24 26 -79 79 c-44 44 -82
80 -86 80 -3 0 -15 -10 -27 -23z"/>
<path d="M3616 1781 l-37 -38 25 -29 25 -29 40 40 c46 44 49 55 23 78 -26 24
-33 22 -76 -22z"/>
<path d="M3750 1640 l0 -180 35 0 35 0 0 180 0 180 -35 0 -35 0 0 -180z"/>
<path d="M3920 1715 l0 -105 40 0 40 0 0 105 0 105 -40 0 -40 0 0 -105z"/>
<path d="M4030 1790 l0 -30 135 0 135 0 0 30 0 30 -135 0 -135 0 0 -30z"/>
<path d="M740 1590 l0 -130 35 0 35 0 0 130 0 130 -35 0 -35 0 0 -130z"/>
<path d="M1140 1645 l0 -35 110 0 110 0 0 35 0 35 -110 0 -110 0 0 -35z"/>
<path d="M1690 1645 l0 -35 65 0 65 0 0 35 0 35 -65 0 -65 0 0 -35z"/>
<path d="M2927 1673 c-4 -3 -7 -19 -7 -35 l0 -28 70 0 70 0 0 35 0 35 -63 0
c-35 0 -67 -3 -70 -7z"/>
<path d="M4037 1673 c-4 -3 -7 -19 -7 -35 l0 -28 115 0 115 0 0 35 0 35 -108
0 c-60 0 -112 -3 -115 -7z"/>
<path d="M4300 1570 l0 -110 35 0 35 0 0 110 0 110 -35 0 -35 0 0 -110z"/>
<path d="M1690 1495 l0 -35 130 0 130 0 0 35 0 35 -130 0 -130 0 0 -35z"/>
<path d="M2290 1495 l0 -35 130 0 130 0 0 35 0 35 -130 0 -130 0 0 -35z"/>
<path d="M2927 1523 c-4 -3 -7 -19 -7 -35 l0 -28 135 0 135 0 0 35 0 35 -128
0 c-71 0 -132 -3 -135 -7z"/>
<path d="M3920 1495 l0 -35 170 0 170 0 0 35 0 35 -170 0 -170 0 0 -35z"/>
</g>
</svg>
